<svg width="40" height="40" viewBox="0 0 40 40" fill="none" xmlns="http://www.w3.org/2000/svg">
<path d="M26.3002 36.6666V23.7666H30.6205L31.2668 18.7518H26.3002V15.5518C26.3002 14.1 26.7039 13.1092 28.7853 13.1092H31.4409V8.62405C30.1553 8.48765 28.8633 8.42151 27.5705 8.42591C23.7428 8.42591 21.1224 10.7629 21.1224 15.0555V18.7518H16.7928V23.7666H21.1224V36.6666H5.18535C4.69421 36.6666 4.22318 36.4715 3.87589 36.1243C3.5286 35.777 3.3335 35.3059 3.3335 34.8148V5.18516C3.3335 4.69402 3.5286 4.223 3.87589 3.87571C4.22318 3.52842 4.69421 3.33331 5.18535 3.33331H34.815C35.3061 3.33331 35.7771 3.52842 36.1244 3.87571C36.4717 4.223 36.6668 4.69402 36.6668 5.18516V34.8148C36.6668 35.3059 36.4717 35.777 36.1244 36.1243C35.7771 36.4715 35.3061 36.6666 34.815 36.6666H26.3002Z" fill="#A1A6B4"/>
</svg>
